<svg width="53" height="53" viewBox="0 0 53 53" fill="none" xmlns="http://www.w3.org/2000/svg">
<path d="M32.6119 33.1886C32.6119 36.3503 29.765 36.419 26.2532 36.419C22.7414 36.419 19.8945 36.3503 19.8945 33.1886" stroke="currentColor" stroke-width="3.93803" stroke-linecap="round"/>
<path d="M42.306 3.48725C42.4024 3.21308 42.7901 3.21316 42.8865 3.48733C43.4459 5.07939 43.7903 6.05948 44.355 6.90202C44.8548 7.6477 45.4768 8.30373 46.1948 8.84249C47.0061 9.45123 47.9666 9.84728 49.5267 10.4906C49.8028 10.6045 49.8028 10.9956 49.5267 11.1095C47.9666 11.7528 47.0061 12.1489 46.1948 12.7576C45.4768 13.2964 44.8548 13.9524 44.355 14.6981C43.7902 15.5406 43.4459 16.5208 42.8865 18.1128C42.7901 18.387 42.4024 18.387 42.306 18.1129C41.7466 16.5208 41.4022 15.5406 40.8375 14.6981C40.3377 13.9524 39.7157 13.2964 38.9977 12.7576C38.1864 12.1489 37.2259 11.7528 35.6658 11.1095C35.3897 10.9956 35.3898 10.6045 35.6659 10.4906C37.2259 9.84726 38.1864 9.45121 38.9977 8.84249C39.7157 8.30373 40.3377 7.6477 40.8375 6.90202C41.4022 6.05947 41.7466 5.07935 42.306 3.48725Z" stroke="white" stroke-width="3.93803" stroke-linejoin="round"/>
<path d="M43.5846 27.7534L43.5846 38.6239C43.5846 42.2488 40.6461 45.1873 37.0212 45.1873L15.4851 45.1873C11.8603 45.1873 8.92176 42.2488 8.92176 38.624L8.92176 15.5015C8.92176 12.9793 10.9664 10.9347 13.4885 10.9347V10.9347L26.6682 10.9347" stroke="white" stroke-width="3.93803" stroke-linecap="round" stroke-linejoin="round"/>
<path d="M7.59338 34.4201C2.77558 34.4201 2.67085 31.5732 2.67085 28.0614C2.67085 24.5496 2.77559 21.7027 7.59338 21.7027" stroke="currentColor" stroke-width="3.93803" stroke-linecap="round"/>
<path d="M49.7338 28.0606C49.7338 31.5724 49.6291 34.4193 44.8113 34.4193" stroke="white" stroke-width="3.93803" stroke-linecap="round"/>
<path d="M32.6123 21.7027L32.6123 24.9844" stroke="currentColor" stroke-width="3.93803" stroke-linecap="round"/>
<path d="M19.8949 21.7027L19.8949 24.9844" stroke="whcurrentColorite" stroke-width="3.93803" stroke-linecap="round"/>
</svg>
