<svg width="193" height="120" viewBox="0 0 193 120" fill="none" xmlns="http://www.w3.org/2000/svg">
    <path
        d="M183.432 0.776855H10.2788C5.07442 0.776855 0.855469 4.14309 0.855469 8.29556V111.678C0.855469 115.831 5.07442 119.197 10.2788 119.197H183.432C188.637 119.197 192.855 115.831 192.855 111.678V8.29556C192.855 4.14309 188.637 0.776855 183.432 0.776855Z"
        fill="#14171C" />
    <path fill-rule="evenodd" clip-rule="evenodd"
        d="M96.8556 72.2159C84.724 72.2159 74.8894 82.0505 74.8894 94.1818C74.8894 95.9661 73.4431 97.4124 71.659 97.4124C69.875 97.4124 68.4287 95.9661 68.4287 94.1818C68.4287 78.4825 81.1558 65.7554 96.8556 65.7554C112.556 65.7554 125.282 78.4825 125.282 94.1818C125.282 95.9661 123.836 97.4124 122.053 97.4124C120.268 97.4124 118.822 95.9661 118.822 94.1818C118.822 82.0505 108.987 72.2159 96.8556 72.2159Z"
        fill="url(#paint0_radial_3089_1090)" />
    <path fill-rule="evenodd" clip-rule="evenodd"
        d="M129.621 94.1816C129.621 76.0865 114.951 61.4172 96.8558 61.4172C78.7603 61.4172 64.091 76.0865 64.091 94.1816C64.091 95.9658 62.6447 97.4122 60.8607 97.4122C59.0766 97.4122 57.6304 95.9658 57.6304 94.1816C57.6304 72.5183 75.1922 54.9565 96.8558 54.9565C118.52 54.9565 136.081 72.5183 136.081 94.1816C136.081 95.9658 134.635 97.4122 132.85 97.4122C131.067 97.4122 129.621 95.9658 129.621 94.1816Z"
        fill="url(#paint1_radial_3089_1090)" />
    <path fill-rule="evenodd" clip-rule="evenodd"
        d="M96.856 50.3419C72.6438 50.3419 53.0159 69.9698 53.0159 94.1818C53.0159 95.966 51.5695 97.4124 49.7855 97.4124C48.0014 97.4124 46.5552 95.966 46.5552 94.1818C46.5552 66.4018 69.0756 43.8813 96.856 43.8813C124.637 43.8813 147.157 66.4018 147.157 94.1818C147.157 95.966 145.711 97.4124 143.927 97.4124C142.142 97.4124 140.696 95.966 140.696 94.1818C140.696 69.9698 121.068 50.3419 96.856 50.3419Z"
        fill="url(#paint2_radial_3089_1090)" />
    <path fill-rule="evenodd" clip-rule="evenodd"
        d="M151.587 94.1815C151.587 63.9548 127.083 39.4509 96.8557 39.4509C66.6286 39.4509 42.1246 63.9548 42.1246 94.1815C42.1246 95.9658 40.6784 97.4121 38.8943 97.4121C37.1103 97.4121 35.6641 95.9658 35.6641 94.1815C35.6641 60.3866 63.0605 32.9902 96.8557 32.9902C130.651 32.9902 158.047 60.3866 158.047 94.1815C158.047 95.9658 156.601 97.4121 154.818 97.4121C153.033 97.4121 151.587 95.9658 151.587 94.1815Z"
        fill="url(#paint3_radial_3089_1090)" />
    <path fill-rule="evenodd" clip-rule="evenodd"
        d="M96.8554 29.0217C60.8683 29.0217 31.6951 58.195 31.6951 94.1817C31.6951 95.966 30.2488 97.4123 28.4647 97.4123C26.6807 97.4123 25.2344 95.966 25.2344 94.1817C25.2344 54.6269 57.3003 22.561 96.8554 22.561C136.411 22.561 168.477 54.6269 168.477 94.1817C168.477 95.966 167.03 97.4123 165.246 97.4123C163.462 97.4123 162.015 95.966 162.015 94.1817C162.015 58.195 132.842 29.0217 96.8554 29.0217Z"
        fill="url(#paint4_radial_3089_1090)" />
    <defs>
        <radialGradient id="paint0_radial_3089_1090" cx="0" cy="0" r="1"
            gradientUnits="userSpaceOnUse"
            gradientTransform="translate(88.9053 80.4777) rotate(64.8515) scale(18.7082 33.8612)">
            <stop stop-color="#3F89A1" />
            <stop offset="0.339725" stop-color="#F4E28D" />
            <stop offset="0.505624" stop-color="#BBDDE5" />
            <stop offset="0.848958" stop-color="#FDA599" />
        </radialGradient>
        <radialGradient id="paint1_radial_3089_1090" cx="0" cy="0" r="1"
            gradientUnits="userSpaceOnUse"
            gradientTransform="translate(143.478 58.0317) rotate(168.06) scale(87.7455 57.2588)">
            <stop stop-color="#3F89A1" />
            <stop offset="0.19" stop-color="#F4E28D" />
            <stop offset="0.614011" stop-color="#BBDDE5" />
            <stop offset="1" stop-color="#FDA599" />
        </radialGradient>
        <radialGradient id="paint2_radial_3089_1090" cx="0" cy="0" r="1"
            gradientUnits="userSpaceOnUse"
            gradientTransform="translate(82.7879 68.7762) rotate(63.8366) scale(31.9052 59.4091)">
            <stop stop-color="#3F89A1" />
            <stop offset="0.339725" stop-color="#F4E28D" />
            <stop offset="0.505624" stop-color="#BBDDE5" />
            <stop offset="0.848958" stop-color="#FDA599" />
        </radialGradient>
        <radialGradient id="paint3_radial_3089_1090" cx="0" cy="0" r="1"
            gradientUnits="userSpaceOnUse"
            gradientTransform="translate(101.132 56.1925) rotate(172.165) scale(66.0854 41.9909)">
            <stop stop-color="#3F89A1" />
            <stop offset="0.339725" stop-color="#F4E28D" />
            <stop offset="0.505624" stop-color="#BBDDE5" />
            <stop offset="0.848958" stop-color="#FDA599" />
        </radialGradient>
        <radialGradient id="paint4_radial_3089_1090" cx="0" cy="0" r="1"
            gradientUnits="userSpaceOnUse"
            gradientTransform="translate(76.8246 57.371) rotate(63.4233) scale(44.7721 84.288)">
            <stop stop-color="#3F89A1" />
            <stop offset="0.339725" stop-color="#F4E28D" />
            <stop offset="0.505624" stop-color="#BBDDE5" />
            <stop offset="0.848958" stop-color="#FDA599" />
        </radialGradient>
    </defs>
</svg>