<svg width="65" height="65" viewBox="0 0 65 65" fill="none" xmlns="http://www.w3.org/2000/svg">
<path d="M27.3963 34.2195C30.5255 36.0255 32.09 36.9285 33.8082 36.93C35.5265 36.9315 37.0926 36.0313 40.2249 34.2308L60.1913 22.7534C61.0927 22.2353 61.6484 21.2749 61.6484 20.2352C61.6484 19.1955 61.0927 18.2351 60.1913 17.717L40.2177 6.23554C37.0888 4.43695 35.5243 3.53766 33.8078 3.53833C32.0912 3.539 30.5275 4.43951 27.4 6.24053L10.2292 16.1286C10.102 16.2019 10.0383 16.2385 9.97905 16.2732C4.11368 19.7068 0.489862 25.9754 0.441408 32.7717C0.440918 32.8404 0.440918 32.9138 0.440918 33.0607C0.440918 33.2074 0.440918 33.2807 0.441407 33.3494C0.489754 40.138 4.10549 46.4008 9.96041 49.837C10.0196 49.8718 10.0831 49.9085 10.2101 49.9818L20.9658 56.1918C27.2331 59.8104 30.3668 61.6197 33.808 61.6208C37.2493 61.622 40.3842 59.8148 46.6539 56.2005L58.008 49.6551C61.1474 47.8454 62.7171 46.9405 63.579 45.4487C64.4409 43.957 64.4409 42.1451 64.4409 38.5215V31.5212C64.4409 30.5159 63.8965 29.5895 63.0182 29.1004C62.1683 28.627 61.1325 28.6341 60.2891 29.1189L37.0074 42.5019C35.4453 43.3998 34.6643 43.8487 33.8072 43.849C32.9501 43.8493 32.1688 43.4008 30.6062 42.5038L14.8487 33.4586C14.0593 33.0055 13.6647 32.7789 13.3477 32.738C12.625 32.6448 11.9301 33.0497 11.6548 33.7244C11.534 34.0203 11.5365 34.4753 11.5414 35.3855C11.545 36.0555 11.5468 36.3905 11.6094 36.6987C11.7496 37.3887 12.1127 38.0136 12.6428 38.4771C12.8795 38.6842 13.1696 38.8516 13.7499 39.1866L30.5974 48.9103C32.164 49.8145 32.9473 50.2666 33.8075 50.2668C34.6677 50.267 35.4512 49.8154 37.0184 48.912L57.6684 37.0085C58.2037 36.7 58.4713 36.5457 58.672 36.6616C58.8727 36.7776 58.8727 37.0865 58.8727 37.7044V40.8796C58.8727 41.7855 58.8727 42.2385 58.6572 42.6114C58.4417 42.9844 58.0493 43.2106 57.2644 43.663L40.2322 53.4811C37.0966 55.2885 35.5288 56.1923 33.8078 56.1915C32.0869 56.1907 30.5199 55.2855 27.386 53.4752L11.4509 44.2701C11.4003 44.2409 11.375 44.2262 11.3514 44.2125C8.0102 42.26 5.94856 38.6882 5.92922 34.8185C5.92909 34.7911 5.92909 34.7619 5.92909 34.7035V31.7889C5.92909 29.6526 7.06686 27.678 8.9151 26.6067C10.5483 25.66 12.5628 25.6582 14.1977 26.6018L27.3963 34.2195Z" fill="#181C1F"/>
</svg>
