<?xml version="1.0" encoding="UTF-8"?>
<svg width="1067px" height="769px" viewBox="0 0 1067 769" version="1.1" xmlns="http://www.w3.org/2000/svg" xmlns:xlink="http://www.w3.org/1999/xlink">
    <defs></defs>
    <g id="Page-1" stroke="none" stroke-width="1"  fill-rule="evenodd" fill="#3884ff">
        <g id="GitBook" transform="translate(-186.000000, -128.000000)">
            <path d="M666.026437,768.67745 C683.230722,768.67745 697.226738,782.67354 697.226738,799.870648 C697.226738,817.067756 683.230722,831.063847 666.026437,831.063847 C648.829421,831.063847 634.833405,817.067756 634.833405,799.870648 C634.833405,782.67354 648.829421,768.67745 666.026437,768.67745 M1155.95679,575.450573 C1138.7525,575.450573 1124.75649,561.453028 1124.75649,544.25592 C1124.75649,527.051544 1138.7525,513.055453 1155.95679,513.055453 C1173.1538,513.055453 1187.14982,527.051544 1187.14982,544.25592 C1187.14982,561.453028 1173.1538,575.450573 1155.95679,575.450573 M1155.95679,447.646843 C1102.68819,447.646843 1059.34822,490.987043 1059.34822,544.25592 C1059.34822,554.629425 1061.07083,564.957866 1064.47099,574.997022 L745.327505,744.879153 C727.195774,718.750597 697.806756,703.261571 666.026437,703.261571 C629.204762,703.261571 595.634965,724.326937 579.395922,757.264559 L292.679649,606.108815 C262.392257,590.182229 239.714873,540.291718 242.120711,494.88583 C243.367967,471.199467 251.557992,452.814697 264.01747,445.716348 C271.932749,441.223004 281.45289,441.616953 291.542872,446.904009 L293.45882,447.914321 C369.419335,487.935756 618.059409,618.895438 628.521533,623.758019 C644.679169,631.228512 653.662902,634.257994 681.181035,621.21116 L1195.13924,353.910249 C1202.66929,351.066839 1211.45387,343.849287 1211.45387,332.888493 C1211.45387,317.682936 1195.73379,311.689387 1195.68873,311.689387 C1166.47124,297.671491 1121.52641,276.635198 1077.70237,256.119325 C984.03314,212.258705 877.860826,162.546998 831.229728,138.132338 C790.977371,117.059703 758.574877,134.820841 752.797959,138.414353 L741.5712,143.968888 C531.726898,247.743185 250.898022,386.826066 234.910466,396.55268 C206.278815,413.973656 188.548298,448.67896 186.25294,491.767673 C182.666715,560.072026 217.514296,631.273576 267.321681,657.402132 L570.493595,813.756259 C577.324431,861.062115 618.044872,896.481179 666.026437,896.481179 C718.805142,896.481179 761.834025,853.934692 762.629187,801.341779 L1096.54059,620.379652 C1113.47013,633.612557 1134.46124,640.866452 1155.95679,640.866452 C1209.22538,640.866452 1252.5668,597.524798 1252.5668,544.25592 C1252.5668,490.987043 1209.22538,447.646843 1155.95679,447.646843" id="GitBook_logo_blue"></path>
        </g>
    </g>
</svg>
